<svg width="14" height="14" viewBox="0 0 14 14" fill="none" xmlns="http://www.w3.org/2000/svg">
<path fill-rule="evenodd" clip-rule="evenodd" d="M11.96 7.66667C11.8133 7.66667 11.66 7.62 11.5133 7.58667C11.2163 7.52122 10.9244 7.43432 10.64 7.32667C9.9995 7.09366 9.28639 7.3812 8.98667 7.99333L8.84 8.29333C8.19067 7.93212 7.59399 7.48349 7.06667 6.96C6.54318 6.43268 6.09455 5.836 5.73334 5.18667L6.01334 5C6.62547 4.70029 6.91302 3.98717 6.68 3.34667C6.57415 3.06162 6.4873 2.76987 6.42 2.47333C6.38667 2.32667 6.36 2.17333 6.34 2.02C6.17275 1.04985 5.32436 0.345689 4.34 0.360001H2.34C1.75863 0.354542 1.20366 0.60234 0.819624 1.03886C0.435593 1.47537 0.26052 2.05739 0.340004 2.63333C1.07063 8.37884 5.60521 12.897 11.3533 13.6067H11.6067C12.0983 13.6074 12.5729 13.427 12.94 13.1C13.3666 12.7184 13.6093 12.1724 13.6067 11.6V9.6C13.5898 8.64504 12.9001 7.83526 11.96 7.66667ZM12.2933 11.6667C12.2931 11.8582 12.2105 12.0403 12.0667 12.1667C11.916 12.2967 11.7176 12.3572 11.52 12.3333C6.38402 11.6748 2.34748 7.61905 1.71334 2.48C1.6919 2.28266 1.75212 2.08514 1.88 1.93333C2.00638 1.78948 2.18852 1.70691 2.38 1.70667H4.38C4.6998 1.69955 4.97958 1.92058 5.04667 2.23333C5.07334 2.41556 5.10667 2.59556 5.14667 2.77333C5.22368 3.12476 5.32618 3.47012 5.45334 3.80667L4.52 4.24C4.35883 4.31395 4.23376 4.44907 4.17245 4.61546C4.11115 4.78186 4.11866 4.96583 4.19334 5.12667C5.1528 7.18184 6.80483 8.83387 8.86 9.79333C9.02231 9.86001 9.20436 9.86001 9.36667 9.79333C9.53461 9.73326 9.67148 9.6084 9.74667 9.44667L10.16 8.51333C10.5046 8.63659 10.8564 8.73899 11.2133 8.82C11.3911 8.86 11.5711 8.89333 11.7533 8.92C12.0661 8.9871 12.2871 9.26687 12.28 9.58667L12.2933 11.6667Z" fill="#3E6AF2"/>
</svg>
