<svg width="12" height="16" viewBox="0 0 12 16" fill="none" xmlns="http://www.w3.org/2000/svg">
<path fill-rule="evenodd" clip-rule="evenodd" d="M6 0.861115C2.80902 0.861115 0.222221 3.44791 0.222221 6.63889C0.222221 10.5389 5.31389 14.9444 5.53055 15.1322C5.80083 15.3634 6.19917 15.3634 6.46944 15.1322C6.72222 14.9444 11.7778 10.5389 11.7778 6.63889C11.7778 3.44791 9.19098 0.861115 6 0.861115ZM6 13.6083C4.46167 12.1639 1.66667 9.05112 1.66667 6.63889C1.66667 4.24566 3.60677 2.30556 6 2.30556C8.39323 2.30556 10.3333 4.24566 10.3333 6.63889C10.3333 9.05112 7.53833 12.1711 6 13.6083ZM6 3.75C4.40451 3.75 3.11111 5.0434 3.11111 6.63889C3.11111 8.23438 4.40451 9.52778 6 9.52778C7.59549 9.52778 8.88889 8.23438 8.88889 6.63889C8.88889 5.0434 7.59549 3.75 6 3.75ZM6 8.08334C5.20225 8.08334 4.55555 7.43664 4.55555 6.63889C4.55555 5.84115 5.20225 5.19445 6 5.19445C6.79774 5.19445 7.44444 5.84115 7.44444 6.63889C7.44444 7.43664 6.79774 8.08334 6 8.08334Z" fill="#3E6AF2"/>
</svg>
