<svg width="14" height="12" viewBox="0 0 14 12" fill="none" xmlns="http://www.w3.org/2000/svg">
<path fill-rule="evenodd" clip-rule="evenodd" d="M11.6667 0.666656H2.33334C1.22877 0.666656 0.333336 1.56209 0.333336 2.66666V9.33332C0.333336 10.4379 1.22877 11.3333 2.33334 11.3333H11.6667C12.7712 11.3333 13.6667 10.4379 13.6667 9.33332V2.66666C13.6667 1.56209 12.7712 0.666656 11.6667 0.666656ZM11.3933 1.99999L7.47334 5.91999C7.34816 6.0462 7.17776 6.11719 7 6.11719C6.82224 6.11719 6.65185 6.0462 6.52667 5.91999L2.60667 1.99999H11.3933ZM12.3333 9.33332C12.3333 9.70151 12.0349 9.99999 11.6667 9.99999H2.33334C1.96515 9.99999 1.66667 9.70151 1.66667 9.33332V2.93999L5.58667 6.85999C6.36752 7.63987 7.63249 7.63987 8.41334 6.85999L12.3333 2.93999V9.33332Z" fill="#3E6AF2"/>
</svg>
