<svg width="14" height="14" viewBox="0 0 14 14" fill="none" xmlns="http://www.w3.org/2000/svg">
<path fill-rule="evenodd" clip-rule="evenodd" d="M7 0.333344C3.3181 0.333344 0.333336 3.31811 0.333336 7.00001C0.333336 10.6819 3.3181 13.6667 7 13.6667C10.6819 13.6667 13.6667 10.6819 13.6667 7.00001C13.6667 5.2319 12.9643 3.53621 11.714 2.28596C10.4638 1.03572 8.76811 0.333344 7 0.333344ZM7.66667 12.2867V11.6667C7.66667 11.2985 7.36819 11 7 11C6.63181 11 6.33334 11.2985 6.33334 11.6667V12.2867C3.91988 11.9806 2.01939 10.0801 1.71334 7.66668H2.33334C2.70153 7.66668 3 7.3682 3 7.00001C3 6.63182 2.70153 6.33334 2.33334 6.33334H1.71334C2.01939 3.91988 3.91988 2.0194 6.33334 1.71334V2.33334C6.33334 2.70153 6.63181 3.00001 7 3.00001C7.36819 3.00001 7.66667 2.70153 7.66667 2.33334V1.71334C10.0801 2.0194 11.9806 3.91988 12.2867 6.33334H11.6667C11.2985 6.33334 11 6.63182 11 7.00001C11 7.3682 11.2985 7.66668 11.6667 7.66668H12.2867C11.9806 10.0801 10.0801 11.9806 7.66667 12.2867ZM9.09334 4.03334L5.76 5.44668C5.60461 5.51401 5.48067 5.63795 5.41334 5.79334L4 9.12668C3.89259 9.37678 3.948 9.66707 4.14 9.86001C4.26309 9.98562 4.43082 10.0575 4.60667 10.06C4.69891 10.0601 4.79002 10.0396 4.87334 10L8.20667 8.58668C8.36206 8.51935 8.48601 8.3954 8.55334 8.24001L9.96667 4.90668C10.0721 4.65679 10.0156 4.36798 9.8238 4.17621C9.63204 3.98445 9.34322 3.92796 9.09334 4.03334ZM7.43334 7.43334L5.91334 8.10001L6.58 6.58001L8.1 5.91334L7.43334 7.43334Z" fill="#3E6AF2"/>
</svg>
